static_grf.mot
version=1
nRows=30
nColumns 19
inDegrees=yes
endheader
time	1_ground_force_vx	1_ground_force_vy	1_ground_force_vz	1_ground_force_px	1_ground_force_py	1_ground_force_pz	1_ground_torque_x	1_ground_torque_y	1_ground_torque_z	2_ground_force_vx	2_ground_force_vy	2_ground_force_vz	2_ground_force_px	2_ground_force_py	2_ground_force_pz	2_ground_torque_x	2_ground_torque_y	2_ground_torque_z
            0.455000	            5.719945	          259.498027	          -20.958850	           -0.284191	            0.006219	           -0.406458	            0.020502	            0.930129	           -0.075124	           -6.486225	          216.090344	           22.970811	           -0.233902	            0.005587	           -0.683099	            0.038527	           -1.283551	           -0.136444
            0.455500	            5.857231	          258.957816	          -21.099079	           -0.284350	            0.006219	           -0.406579	            0.020718	            0.915965	           -0.074630	           -6.865717	          217.378341	           22.881714	           -0.234170	            0.005590	           -0.684158	            0.039741	           -1.258256	           -0.132447
            0.456000	            5.949666	          258.596123	          -20.825717	           -0.284186	            0.006220	           -0.406815	            0.021447	            0.932175	           -0.075072	           -6.766036	          215.721352	           22.875760	           -0.234345	            0.005586	           -0.683183	            0.040138	           -1.279718	           -0.135705
            0.456500	            5.628229	          258.416808	          -21.054972	           -0.284584	            0.006223	           -0.407404	            0.018954	            0.870242	           -0.070904	           -6.819532	          217.562682	           22.882351	           -0.234273	            0.005591	           -0.684550	            0.038324	           -1.222637	           -0.128592
            0.457000	            5.765530	          258.417228	          -21.147026	           -0.284383	            0.006222	           -0.407337	            0.021531	            0.965020	           -0.078970	           -6.768736	          216.458280	           22.784532	           -0.234178	            0.005587	           -0.683438	            0.039353	           -1.258490	           -0.132469
            0.457500	            5.582728	          258.416210	          -20.917291	           -0.284796	            0.006221	           -0.407014	            0.019749	            0.914168	           -0.073997	           -6.814277	          216.089997	           22.736310	           -0.233931	            0.005588	           -0.683270	            0.038960	           -1.235476	           -0.129993
            0.458000	            5.765920	          258.776973	          -20.962056	           -0.284469	            0.006220	           -0.406806	            0.020855	            0.935979	           -0.075818	           -6.673707	          216.090337	           22.783178	           -0.234006	            0.005587	           -0.683271	            0.038863	           -1.258344	           -0.132672
            0.458500	            5.674087	          258.957387	          -21.006912	           -0.284301	            0.006221	           -0.406927	            0.020594	            0.939879	           -0.076244	           -6.813592	          215.905659	           22.782581	           -0.234528	            0.005583	           -0.682443	            0.039845	           -1.262601	           -0.133231
            0.459000	            5.811667	          258.056312	          -21.056974	           -0.284311	            0.006222	           -0.407245	            0.021112	            0.937455	           -0.076495	           -6.676345	          216.826763	           22.832735	           -0.233919	            0.005589	           -0.683610	            0.038460	           -1.249045	           -0.131530
            0.459500	            5.674479	          258.055696	          -20.919064	           -0.284338	            0.006223	           -0.407443	            0.020444	            0.929732	           -0.075368	           -6.905901	          215.536537	           22.922091	           -0.234105	            0.005585	           -0.682708	            0.039460	           -1.231565	           -0.130976
            0.460000	            5.720143	          258.416433	          -20.963488	           -0.284347	            0.006222	           -0.407314	            0.019546	            0.883036	           -0.071634	           -6.864512	          217.011064	           22.598831	           -0.233946	            0.005588	           -0.683479	            0.038004	           -1.201449	           -0.125115
            0.460500	            5.812089	          258.235761	          -20.872777	           -0.284281	            0.006220	           -0.406746	            0.020808	            0.924537	           -0.074729	           -6.770730	          217.010733	           22.786503	           -0.233899	            0.005589	           -0.683730	            0.040307	           -1.291886	           -0.135650
            0.461000	            5.858028	          258.956440	          -20.778087	           -0.284068	            0.006220	           -0.406818	            0.020452	            0.904099	           -0.072543	           -6.958191	          217.010558	           22.645799	           -0.234100	            0.005590	           -0.684164	            0.039833	           -1.242288	           -0.129637
            0.461500	            5.811700	          257.876016	          -21.057747	           -0.284280	            0.006223	           -0.407572	            0.020738	            0.920189	           -0.075141	           -6.911944	          217.194366	           22.787220	           -0.234534	            0.005589	           -0.684293	            0.039192	           -1.231544	           -0.129209
            0.462000	            5.765791	          258.236539	          -21.056087	           -0.284424	            0.006221	           -0.407138	            0.021230	            0.950850	           -0.077530	           -6.910615	          216.826085	           22.785906	           -0.234018	            0.005588	           -0.683521	            0.039040	           -1.224915	           -0.128724
            0.462500	            5.765872	          258.416638	          -21.009458	           -0.284396	            0.006221	           -0.407026	            0.020723	            0.928753	           -0.075508	           -6.816312	          216.642754	           22.644425	           -0.233839	            0.005589	           -0.683653	            0.039174	           -1.245073	           -0.130140
            0.463000	            5.674186	          258.416621	          -21.009230	           -0.284280	            0.006220	           -0.406814	            0.019395	            0.883282	           -0.071811	           -6.959376	          217.377668	           22.975610	           -0.234020	            0.005591	           -0.684422	            0.038576	           -1.204921	           -0.127353
            0.463500	            5.720044	          258.957199	          -20.961169	           -0.284581	            0.006220	           -0.406700	            0.020971	            0.949383	           -0.076847	           -6.770024	          216.826258	           22.879703	           -0.233765	            0.005590	           -0.683700	            0.037589	           -1.203863	           -0.127033
            0.464000	            5.627920	          258.237102	          -21.193313	           -0.284380	            0.006221	           -0.407092	            0.020190	            0.926440	           -0.076032	           -6.956115	          216.457436	           22.831540	           -0.234022	            0.005588	           -0.683352	            0.039110	           -1.217019	           -0.128369
            0.464500	            5.628798	          258.415825	          -20.825693	           -0.284717	            0.006220	           -0.406853	            0.019904	            0.913774	           -0.073641	           -6.722509	          216.642256	           22.879026	           -0.233921	            0.005589	           -0.683656	            0.038553	           -1.242426	           -0.131209
            0.465000	            5.720679	          258.595685	          -20.733436	           -0.284445	            0.006219	           -0.406513	            0.020448	            0.924344	           -0.074111	           -6.679065	          217.563859	           22.694579	           -0.234265	            0.005589	           -0.684118	            0.038372	           -1.249945	           -0.130385
            0.465500	            5.445361	          258.776321	          -20.823692	           -0.284475	            0.006219	           -0.406577	            0.018109	            0.860578	           -0.069251	           -6.768777	          216.458615	           22.690676	           -0.233669	            0.005588	           -0.683094	            0.038639	           -1.235648	           -0.129529
            0.466000	            5.674234	          258.776955	          -20.961829	           -0.284416	            0.006221	           -0.407027	            0.020220	            0.922152	           -0.074697	           -6.861730	          216.273467	           22.877771	           -0.234265	            0.005587	           -0.683308	            0.039823	           -1.255182	           -0.132775
            0.466500	            5.811601	          258.416844	          -21.055428	           -0.284313	            0.006222	           -0.407178	            0.021075	            0.937109	           -0.076354	           -6.723818	          217.010400	           22.927268	           -0.233728	            0.005591	           -0.683993	            0.039598	           -1.278017	           -0.135023
            0.467000	            5.629400	          258.234546	          -20.597186	           -0.284111	            0.006219	           -0.406635	            0.019148	            0.878371	           -0.070060	           -6.765413	          215.537546	           22.781247	           -0.233853	            0.005586	           -0.682714	            0.038252	           -1.218651	           -0.128805
            0.467500	            5.766459	          257.694789	          -20.829126	           -0.284618	            0.006221	           -0.407058	            0.020480	            0.915204	           -0.073975	           -6.535130	          216.643100	           22.832018	           -0.234086	            0.005588	           -0.683571	            0.038134	           -1.264154	           -0.133229
            0.468000	            5.720451	          258.596078	          -20.825148	           -0.284226	            0.006219	           -0.406674	            0.020465	            0.925143	           -0.074503	           -6.770086	          216.826760	           22.738918	           -0.234181	            0.005589	           -0.683781	            0.039062	           -1.251062	           -0.131201
            0.468500	            5.674333	          258.236128	          -20.964148	           -0.284528	            0.006221	           -0.407128	            0.019923	            0.906702	           -0.073608	           -6.862497	          216.458444	           22.643788	           -0.233913	            0.005588	           -0.683260	            0.040424	           -1.275063	           -0.133385
            0.469000	            5.582548	          258.776938	          -20.961601	           -0.284369	            0.006219	           -0.406596	            0.019119	            0.886247	           -0.071788	           -6.725229	          217.379351	           22.740870	           -0.234165	            0.005589	           -0.683814	            0.039503	           -1.276841	           -0.133575
            0.469500	            5.674186	          258.416621	          -21.009230	           -0.284563	            0.006221	           -0.407102	            0.019974	            0.909685	           -0.073957	           -6.865176	          217.195205	           22.599488	           -0.234034	            0.005589	           -0.683867	            0.037812	           -1.196283	           -0.124475
